<svg width="40" height="40" viewBox="0 0 40 40" fill="none" xmlns="http://www.w3.org/2000/svg">
<rect x="0.5" y="0.500092" width="39" height="39" rx="19.5" fill="white"/>
<rect x="0.5" y="0.500092" width="39" height="39" rx="19.5" stroke="black"/>
<path d="M23.584 17.0761C23.376 15.7481 22.928 14.7481 22.24 14.0761C21.568 13.4041 20.672 13.0601 19.552 13.0441C18.72 13.0441 17.992 13.2361 17.368 13.6201C16.744 14.0041 16.224 14.5161 15.808 15.1561C15.408 15.7961 15.104 16.5241 14.896 17.3401C14.704 18.1561 14.608 18.9961 14.608 19.8601C14.608 21.2361 14.8 22.4601 15.184 23.5321C15.584 24.5881 16.16 25.4201 16.912 26.0281C17.664 26.6361 18.576 26.9401 19.648 26.9401C20.656 26.9401 21.656 26.6841 22.648 26.1721C23.64 25.6441 24.472 24.9161 25.144 23.9881L26.296 25.0441C25.512 26.1161 24.688 26.9321 23.824 27.4921C22.96 28.0361 22.112 28.4041 21.28 28.5961C20.464 28.7881 19.728 28.8841 19.072 28.8841C17.84 28.8841 16.72 28.6681 15.712 28.2361C14.704 27.7881 13.832 27.1801 13.096 26.4121C12.376 25.6281 11.816 24.7241 11.416 23.7001C11.032 22.6601 10.84 21.5401 10.84 20.3401C10.84 19.2521 11.016 18.1721 11.368 17.1001C11.72 16.0281 12.24 15.0601 12.928 14.1961C13.632 13.3161 14.512 12.6201 15.568 12.1081C16.624 11.5801 17.848 11.3161 19.24 11.3161C19.864 11.3161 20.544 11.4201 21.28 11.6281C22.032 11.8201 22.736 12.1081 23.392 12.4921L23.296 11.4841H25.144V17.0761H23.584Z" fill="black"/>
</svg>
