<svg width="180" height="50" viewBox="0 0 180 50" fill="none" xmlns="http://www.w3.org/2000/svg">
<g id="Vector">
<path d="M153.921 17.9226L149.201 32.0818L144.56 17.9226H138.606L145.733 37.4845H152.441L159.651 17.9226H153.921Z" fill="#141414"/>
<path d="M120.803 22.2437V17.9226H115.576V37.4845H121.166V29.2408C121.166 24.7419 123.958 23.2313 127.369 23.2313H129.074V17.9226H127.9C124.657 17.9226 121.819 19.1616 120.803 22.2437Z" fill="#141414"/>
<path d="M100.018 12.778H90.3222V37.4836H100.018C107.731 37.4836 113.098 32.5379 113.07 25.1042C113.042 17.782 107.787 12.778 100.018 12.778ZM100.018 32.0911H96.022V18.1731H100.018C104.294 18.1731 107.201 20.9963 107.201 25.1042C107.201 29.2121 104.294 32.0911 100.018 32.0911Z" fill="#141414"/>
<path d="M79.533 17.5299C77.1059 17.5553 74.6127 18.477 73.0209 20.8051V17.921H67.6842V37.4829H73.2723V27.6727C73.2723 24.0955 75.0901 22.3081 77.436 22.3081C79.7818 22.3081 81.3204 23.7883 81.3204 27.3934V37.4829H86.9109V25.4664C86.9109 20.8279 84.1715 17.5021 79.533 17.5299Z" fill="#141414"/>
<path d="M64.279 17.9226H58.6884V37.4845H64.279V17.9226Z" fill="#141414"/>
<path d="M64.279 10.0692H58.6884V15.6014H64.279V10.0692Z" fill="#141414"/>
<path d="M136.59 17.9226H131V37.4845H136.59V17.9226Z" fill="#141414"/>
<path d="M136.59 10.0692H131V15.6014H136.59V10.0692Z" fill="#141414"/>
<path d="M0 25C0 18.1958 0 14.7683 0.939377 12.0518C2.66579 7.07563 6.55025 3.1658 11.5264 1.41399C14.2684 0.474609 17.645 0.474609 24.4238 0.474609C31.2025 0.474609 34.6046 0.474609 37.3212 1.41399C42.272 3.1404 46.1818 7.05025 47.9082 12.0518C48.8476 14.7937 48.8476 18.1958 48.8476 25C48.8476 31.8041 48.8476 35.2316 47.9082 37.9481C46.1818 42.9243 42.2974 46.8341 37.3212 48.586C34.5793 49.5253 31.2025 49.5253 24.4238 49.5253C17.645 49.5253 14.243 49.5253 11.5264 48.586C6.57564 46.8595 2.66579 42.9497 0.939377 37.9481C0 35.2316 0 31.8295 0 25Z" fill="#C1F11D"/>
<path d="M19.4809 19.9895H13.5272V37.4847H19.4809V19.9895Z" fill="#141414"/>
<path d="M26.9108 11.6332H22.2165V17.4751H26.7713C30.9349 17.4751 33.814 20.4379 33.814 24.5179C33.814 28.5978 30.9349 31.6445 26.7713 31.6445H22.2165V37.4863H26.9108C34.2888 37.4863 39.8489 31.84 39.8489 24.4925C39.8489 17.145 34.2888 11.6382 26.9108 11.6382V11.6332Z" fill="#141414"/>
<path d="M19.4809 11.6332H13.5272V17.4751H19.4809V11.6332Z" fill="#141414"/>
<path d="M169.963 17.4747C163.732 17.4747 159.596 22.0294 159.596 27.7595C159.596 33.4898 163.929 37.9887 170.245 37.9328C173.989 37.9048 176.811 36.2572 179.019 33.434L174.994 30.89C173.906 32.2864 172.228 33.0988 170.357 33.0988C168.16 33.0988 165.985 31.8268 165.266 29.4658H179.857C180.862 23.1211 176.475 17.4773 169.963 17.4773V17.4747ZM170.134 22.0015C172.553 22.0015 174.477 23.6111 174.719 25.6905H165.284C165.997 23.182 168.035 22.0015 170.134 22.0015Z" fill="#141414"/>
</g>
</svg>
