<svg width="200" height="160" viewBox="0 0 200 160" fill="none" xmlns="http://www.w3.org/2000/svg">
<rect width="200" height="160" fill="white"/>
<path d="M63.0721 43.0054L20.1215 42.8325H20.0808C18.7457 42.8312 17.4233 43.093 16.1894 43.603C14.9555 44.113 13.8342 44.8612 12.8897 45.8049C11.9451 46.7485 11.1958 47.869 10.6845 49.1024C10.1733 50.3358 9.91016 51.6578 9.91016 52.993V107.009C9.90962 108.343 10.1719 109.664 10.6821 110.897C11.1923 112.129 11.9404 113.249 12.8836 114.193C13.8268 115.136 14.9466 115.885 16.1791 116.395C17.4116 116.905 18.7326 117.168 20.0666 117.168H20.1215L63.0924 117.031V114.44C63.0947 101.675 58.2606 89.3827 49.5634 80.0388C58.2876 70.6946 63.1189 58.3745 63.0721 45.5908V43.0054ZM30.1599 66.6949C24.9281 64.5652 20.75 64.1705 15.1074 63.8837V63.7881C19.0403 63.1939 22.6751 61.3419 25.4674 58.5092C28.2598 55.6765 30.0595 52.0156 30.5972 48.0745L39.999 48.1152C39.3684 55.6272 35.8555 61.754 30.1599 66.6949ZM16.5719 49.4801C17.5011 48.5514 18.761 48.0297 20.0747 48.0297L24.3728 48.0745C24.3728 50.0659 23.2968 52.5475 21.4782 54.4006C19.6618 56.2578 17.1862 57.2952 15.1582 57.2952L15.1094 52.9747C15.1098 52.3242 15.2394 51.6803 15.4909 51.0803C15.7423 50.4804 16.1084 49.9364 16.5719 49.4801ZM15.1074 96.2914V86.9406C21.8912 87.5833 27.5257 89.3429 32.3263 94.1739C37.1288 99.0029 39.3582 105.065 39.9644 111.871L30.5911 111.897C30.0346 107.977 28.2268 104.341 25.4368 101.53C22.6468 98.7203 19.0239 96.8864 15.1074 96.3016V96.2914ZM20.1215 111.975C19.4697 111.975 18.8243 111.846 18.2221 111.597C17.6199 111.347 17.0728 110.982 16.6119 110.521C16.151 110.06 15.7854 109.513 15.536 108.911C15.2866 108.309 15.1582 107.663 15.1582 107.011V102.854C17.1435 102.854 19.6679 103.897 21.4843 105.742C23.2968 107.587 24.3748 110.083 24.3748 111.893L20.1215 111.975ZM56.7317 111.863L46.6485 111.893C46.0237 103.728 42.5021 96.0546 36.7188 90.2568C30.9355 84.4589 23.271 80.9181 15.1074 80.2727L15.1562 69.9637C26.2707 70.6431 35.3042 74.7277 43.1743 82.618C51.0443 90.5084 56.0808 100.756 56.7277 111.889L56.7317 111.863ZM44.6287 75.3704C41.7849 72.8807 39.8973 71.7639 36.5816 69.9495C42.4644 64.1396 46.0312 56.387 46.616 48.1396L56.2008 48.1152C55.6353 58.6316 51.799 67.653 44.6266 75.3725L44.6287 75.3704Z" fill="#2376F3"/>
<path d="M71.0938 99.7423H78.9048V91.7522L82.8714 87.4256L90.1434 99.7423H98.9755L88.4611 82.1369L98.7376 70.3552H89.4823L79.0269 82.678H78.9048V60.2578H71.0938V99.7423Z" fill="#3E4B5B"/>
<path d="M122.601 95.1686C131.736 95.1686 138.166 88.9198 138.166 79.9655C138.166 70.9482 131.736 64.8215 122.601 64.8215C113.228 64.8215 106.975 71.1903 106.975 79.9655C106.975 88.7408 113.219 95.1686 122.601 95.1686ZM122.601 88.0756C118.095 88.0756 114.969 84.5322 114.969 79.9655C114.969 75.3359 118.032 71.8494 122.601 71.8494C126.927 71.8494 130.174 75.1569 130.174 79.9655C130.174 84.7742 126.807 88.0756 122.601 88.0756ZM141.933 94.6275H149.805V81.0477C149.805 76.5991 152.393 73.3546 157.26 73.3546C157.74 73.3546 158.523 73.3546 159.364 73.4136V64.8174H158.761C155.338 64.8174 152.151 66.5199 149.929 69.5081H149.807V65.2405H141.935L141.933 94.6275ZM173.625 95.1686C177.469 95.1686 180.415 93.7264 182.457 91.0861L182.577 91.1471V94.6316H190.089V65.2405H182.217V68.6212L182.095 68.6822C179.994 66.1558 176.867 64.8377 173.444 64.8377C165.572 64.8377 159.622 71.1435 159.622 80.0408C159.622 89.113 165.572 95.1828 173.625 95.1828V95.1686ZM175.126 88.0898C170.677 88.0898 167.614 84.7844 167.614 80.0978C167.614 75.0511 170.86 71.8636 175.126 71.8636C179.333 71.8636 182.577 75.3501 182.577 80.0978C182.577 84.9085 179.154 88.0898 175.126 88.0898Z" fill="#3E4B5B"/>
</svg>
