<svg width="72" height="117" viewBox="0 0 72 117" fill="none" xmlns="http://www.w3.org/2000/svg">
<g id="Frame 1248">
<path id="Vector 1" d="M24.3345 72.3871L64.7631 21.892C68.4844 17.2441 67.7332 10.4594 63.0853 6.73809C58.4373 3.01675 51.6527 3.76791 47.9313 8.41586L7.50283 58.911C3.78149 63.5589 4.53265 70.3436 9.18059 74.0649C13.8285 77.7863 20.6132 77.0351 24.3345 72.3871Z" fill="#003257"/>
<path id="Vector 2" d="M31.6658 108.584L45.142 91.7524C48.8633 87.1045 48.1121 80.3198 43.4642 76.5985C38.8162 72.8772 32.0316 73.6283 28.3102 78.2763L14.8341 95.108C11.1127 99.7559 11.8639 106.541 16.5118 110.262C21.1598 113.983 27.9445 113.232 31.6658 108.584Z" fill="#003257"/>
</g>
</svg>
