<svg xmlns="http://www.w3.org/2000/svg" width="332" height="204" viewBox="0 0 332 204" fill="none">
  <path d="M105.089 0.632843C108.99 0.991564 108.99 0.991564 112.969 1.35753C119.318 2.28927 119.318 2.28927 121.965 4.93956C122.939 11.1099 123.825 17.2948 124.613 23.4916C131.165 26.1153 131.165 26.1153 137.849 28.7921C137.065 38.2118 135.722 41.5224 128.915 48.338C126.621 49.7592 124.328 51.1804 121.965 52.6447C119.345 51.7701 116.724 50.8955 114.024 49.9944C95.895 48.028 81.3958 49.8377 66.3727 60.5956C54.0597 73.5714 49.0136 85.1102 47.8418 103C48.961 120.306 55.0468 130.975 66.5071 143.738C80.3874 155.35 94.8702 153.679 111.919 152.45C117.426 152.248 117.426 152.248 127.26 153.356C133.909 159.629 133.909 159.629 137.849 166.607C137.187 172.736 137.187 172.736 135.202 177.208C128.65 178.52 128.65 178.52 121.965 179.858C121.965 186.855 121.965 193.852 121.965 201.061C114.647 204.724 108.607 203.964 100.456 203.877C97.5557 203.853 94.6551 203.829 91.6666 203.804C88.3189 203.758 88.3189 203.758 84.9036 203.711C84.5146 202.051 84.1256 200.39 83.7248 198.68C80.0446 184.459 80.0446 184.459 69.3509 175.055C58.5065 174.403 55.8218 178.221 47.8418 185.159C36.2733 184.141 30.0021 176.875 22.3308 168.833C18.7218 163.957 18.7218 163.957 18.3909 156.834C21.3691 150.705 21.3691 150.705 25.8363 145.57C27.5562 142.865 27.5562 142.865 29.3109 140.104C27.4254 131.566 27.4254 131.566 24.0163 124.202C20.5765 123.82 17.1367 123.437 13.5927 123.043C3.16904 121.883 3.16904 121.883 0.190861 118.902C-0.00130299 113.107 -0.0308158 107.307 0.0254066 101.509C0.0492941 98.3356 0.0731816 95.1617 0.097793 91.8917C0.128505 89.4354 0.159218 86.979 0.190861 84.4482C8.01791 80.5302 15.3923 81.638 24.0163 81.7979C27.5585 71.3404 27.5585 71.3404 29.3109 60.5956C24.347 54.7422 24.347 54.7422 18.7218 49.9944C19.1386 41.5366 20.5177 37.6746 26.2603 31.3907C28.1952 29.8225 30.1301 28.2544 32.1236 26.6388C34.0653 25.0365 36.007 23.4342 38.0076 21.7834C39.5057 20.5979 41.0038 19.4124 42.5472 18.191C45.4956 20.0768 45.4956 20.0768 48.5036 22.0008C60.1404 28.6201 66.5914 29.4 79.6091 26.1418C80.4827 18.2705 81.3563 10.3991 82.2564 2.28927C90.9382 -0.607979 96.0611 -0.249523 105.089 0.632843Z" fill="#156DAF"/>
  <path fill-rule="evenodd" clip-rule="evenodd" d="M289.742 98.0394C288.856 100.908 288.426 103.987 288.426 107.257C288.426 114.243 290.414 120.063 294.668 124.383L294.681 124.397C299.039 128.76 305.638 130.659 313.866 130.659C316.454 130.659 319.04 130.434 321.622 129.985C324.248 129.537 326.589 128.909 328.613 128.074L330.253 127.398V113.008H332V107.257C332 103.936 331.635 100.82 330.882 97.9237C330.118 94.9789 328.892 92.3684 327.168 90.1442C325.454 87.8632 323.217 86.1144 320.521 84.8877C317.77 83.6357 314.598 83.06 311.087 83.06C307.522 83.06 304.272 83.6355 301.393 84.8617C298.729 85.9967 296.426 87.579 294.521 89.6151V93.9681C295.018 93.1812 295.562 92.4428 296.156 91.7529C297.85 89.8447 299.941 88.3605 302.43 87.3004C304.918 86.2403 307.804 85.7103 311.087 85.7103C314.316 85.7103 317.096 86.2403 319.425 87.3004C321.755 88.3605 323.635 89.8447 325.064 91.7529C326.547 93.6611 327.632 95.9404 328.32 98.5906C329.009 101.241 329.353 104.13 329.353 107.257V110.358H302.748C302.927 111.335 303.2 112.219 303.567 113.008C304.174 114.317 305.04 115.369 306.163 116.162C308.016 117.381 310.689 117.991 314.184 117.991C316.566 117.991 318.896 117.805 321.173 117.434C322.494 117.224 323.756 116.971 324.958 116.675C325.875 116.449 326.758 116.199 327.606 115.924V125.624C325.805 126.366 323.661 126.949 321.173 127.373C318.737 127.797 316.302 128.009 313.866 128.009C305.977 128.009 300.206 126.18 296.553 122.523C292.9 118.812 291.073 113.724 291.073 107.257C291.073 104.13 291.497 101.241 292.344 98.5906C292.419 98.3704 292.496 98.1527 292.576 97.9375C291.858 97.9233 291.178 97.9359 290.536 97.9752C290.504 97.9771 290.473 97.9791 290.441 97.9812C290.203 97.9968 289.97 98.0162 289.742 98.0394ZM306.647 113.008C306.946 113.388 307.284 113.705 307.653 113.971C308.896 114.773 310.965 115.34 314.184 115.34C316.429 115.34 318.616 115.166 320.747 114.818L320.757 114.817C322.97 114.464 324.978 113.99 326.789 113.403L328.003 113.008H306.647ZM304.971 97.0005C306.295 95.3573 308.227 94.5357 310.769 94.5357C313.204 94.5357 315.031 95.3308 316.249 96.921C317.13 97.9872 317.757 99.4361 318.129 101.267C318.293 102.076 318.408 102.96 318.472 103.918H302.589C302.674 102.966 302.813 102.083 303.007 101.267C303.417 99.5392 304.072 98.1169 304.971 97.0005ZM305.745 101.267H315.416C315.108 100.033 314.679 99.1786 314.209 98.6107L314.178 98.5727L314.148 98.5335C313.541 97.7409 312.58 97.186 310.769 97.186C308.846 97.186 307.749 97.7742 307.032 98.6642C306.52 99.3 306.075 100.15 305.745 101.267Z" fill="white"/>
  <path fill-rule="evenodd" clip-rule="evenodd" d="M267.969 127.214V129.864H285.017V105.905C285.017 103.189 285.809 102.098 286.649 101.592C287.655 101.013 289.305 100.606 291.797 100.583C291.954 99.9047 292.136 99.2405 292.344 98.5906C292.407 98.4033 292.473 98.2178 292.54 98.0341C292.552 98.0018 292.564 97.9696 292.576 97.9375C292.338 97.9328 292.104 97.931 291.874 97.9322C289.052 97.9467 286.864 98.4047 285.309 99.3062C283.35 100.472 282.37 102.672 282.37 105.905V127.214H270.616V86.5848H282.37V94.3767C283.087 92.6329 283.97 91.1318 285.017 89.8733C285.594 89.1807 286.22 88.5616 286.897 88.016C288.24 86.9326 289.899 86.2837 291.874 86.0692C292.022 86.0531 292.171 86.0395 292.323 86.0283C293.018 85.9769 293.751 85.9769 294.521 86.0283L294.521 93.9681C295.018 93.1812 295.562 92.4428 296.156 91.7529C296.479 91.3891 296.816 91.0407 297.168 90.7077V83.5488L294.697 83.3839C291.062 83.1413 287.801 83.8839 285.236 85.9521C285.163 86.0114 285.09 86.0713 285.017 86.1319V83.9346H267.969V86.5848H268.513V127.214H267.969Z" fill="white"/>
  <path fill-rule="evenodd" clip-rule="evenodd" d="M229.616 121.047C230.01 121.895 230.451 122.705 230.941 123.473L230.96 123.501C232.386 125.674 234.186 127.424 236.357 128.703L236.386 128.72C238.701 130.044 241.339 130.659 244.211 130.659C247.409 130.659 250.355 129.883 252.976 128.284C253.34 128.061 253.693 127.824 254.033 127.572V129.864H271.161V127.214H270.616V86.5848H271.161V83.9346H254.033V86.139C253.866 86.0135 253.695 85.8911 253.522 85.7718C251.057 83.9821 248.147 83.1395 244.926 83.1395C241.902 83.1395 239.132 83.7782 236.71 85.1545L236.683 85.1702C234.398 86.5044 232.513 88.3403 231.031 90.6286L231.021 90.6441C229.627 92.8284 228.598 95.3278 227.904 98.1069L227.898 98.1322L227.892 98.1576C227.261 100.914 226.951 103.817 226.951 106.86C226.951 108.892 227.076 110.849 227.329 112.729C228.098 112.407 228.861 112.062 229.616 111.694V121.047ZM251.994 87.9365C250.035 86.5053 247.679 85.7898 244.926 85.7898C242.279 85.7898 239.976 86.3463 238.017 87.4594C236.111 88.5726 234.522 90.1097 233.252 92.0709C232.034 93.9791 231.107 96.2054 230.472 98.7497C229.89 101.294 229.599 103.997 229.599 106.86C229.599 109.881 229.89 112.69 230.472 115.287C231.055 117.885 231.955 120.137 233.172 122.046C234.39 123.901 235.899 125.359 237.699 126.419C239.552 127.479 241.723 128.009 244.211 128.009C246.965 128.009 249.427 127.346 251.597 126.021C252.49 125.476 253.302 124.815 254.033 124.038C255.081 122.924 255.963 121.57 256.68 119.978V127.214H268.513V86.5848H256.68V93.6611C255.977 92.1202 255.095 90.7909 254.033 89.6734C253.414 89.0226 252.735 88.4437 251.994 87.9365ZM243.179 115.049C241.908 113.247 241.273 110.517 241.273 106.86C241.273 103.361 241.935 100.684 243.258 98.8292C244.635 96.921 246.647 95.9669 249.294 95.9669C251.359 95.9669 253.106 96.7089 254.536 98.1931C255.965 99.6773 256.68 102.036 256.68 105.269V108.529C256.68 111.71 255.886 114.042 254.298 115.526C252.709 117.01 250.883 117.752 248.818 117.752C246.382 117.752 244.503 116.851 243.179 115.049ZM245.408 100.376C244.537 101.6 243.92 103.643 243.92 106.86C243.92 110.275 244.526 112.348 245.327 113.5C246.101 114.541 247.147 115.102 248.818 115.102C250.174 115.102 251.365 114.641 252.491 113.588C253.336 112.799 254.033 111.317 254.033 108.529V105.269C254.033 102.346 253.375 100.806 252.63 100.033C251.701 99.0682 250.642 98.6171 249.294 98.6171C247.376 98.6171 246.219 99.2552 245.408 100.376Z" fill="white"/>
  <path fill-rule="evenodd" clip-rule="evenodd" d="M232.264 120.441V125.749L231.085 126.535C228.898 127.995 226.245 129.06 223.203 129.791L223.179 129.797L223.154 129.802C220.124 130.47 216.91 130.797 213.521 130.797C208.633 130.797 204.164 130.081 200.151 128.597C196.175 127.128 192.767 125.047 189.984 122.324L189.962 122.303C187.192 119.53 185.077 116.18 183.6 112.298L183.587 112.263C182.166 108.367 181.478 104.067 181.478 99.3963C181.478 98.9617 181.485 98.53 181.497 98.1013C182.309 97.9938 183.194 97.9374 184.151 97.9323C184.134 98.4155 184.126 98.9035 184.126 99.3963C184.126 103.806 184.775 107.792 186.074 111.354C187.429 114.916 189.35 117.941 191.834 120.429C194.319 122.86 197.397 124.754 201.068 126.111C204.739 127.468 208.89 128.147 213.521 128.147C216.74 128.147 219.761 127.836 222.585 127.214C225.409 126.535 227.753 125.574 229.616 124.33L229.616 111.694C228.743 112.12 227.86 112.515 226.969 112.878C225.613 113.432 224.236 113.913 222.839 114.323C220.524 115.001 217.982 115.34 215.215 115.34C209.624 115.34 205.332 113.899 202.339 111.015C199.346 108.075 197.849 104.23 197.849 99.4811C197.849 94.7318 199.317 90.8872 202.254 87.9471C205.191 84.9505 209.455 83.4522 215.046 83.4522C217.926 83.4522 220.524 83.8197 222.839 84.5547C224.236 84.9641 225.613 85.4661 226.969 86.0608C227.86 86.4516 228.743 86.8825 229.616 87.3534V74.7169C227.583 73.3599 225.155 72.3422 222.331 71.6637C219.507 70.9287 216.542 70.5612 213.436 70.5612C208.805 70.5612 204.654 71.268 200.983 72.6815C197.369 74.0384 194.319 75.989 191.834 78.5333C189.727 80.6435 188.025 83.1402 186.73 86.0234C185.69 85.9584 184.719 85.9876 183.816 86.1112C185.279 82.4685 187.319 79.3084 189.952 76.6697C192.726 73.8324 196.107 71.6834 200.043 70.204C204.063 68.6576 208.541 67.9109 213.436 67.9109C216.744 67.9109 219.926 68.3015 222.973 69.0925C226.034 69.8305 228.755 70.9565 231.085 72.5117L232.264 73.2985V91.7906L228.361 89.6869C226.315 88.5841 224.227 87.723 222.096 87.0983L222.067 87.09L222.039 87.0811C220.025 86.4418 217.703 86.1025 215.046 86.1025C209.92 86.1025 206.434 87.4667 204.144 89.8032L204.126 89.8212C201.758 92.1924 200.496 95.3261 200.496 99.4811C200.496 103.616 201.772 106.741 204.183 109.114C206.533 111.372 210.073 112.69 215.215 112.69C217.767 112.69 220.054 112.377 222.096 111.779C224.266 111.143 226.386 110.321 228.457 109.311L229.637 108.736C229.679 109.747 229.756 110.733 229.868 111.694C229.895 111.927 229.924 112.159 229.955 112.389C230.043 113.045 230.149 113.688 230.27 114.319C230.333 114.645 230.4 114.968 230.472 115.287C230.899 117.19 231.496 118.908 232.264 120.441Z" fill="white"/>
  <path fill-rule="evenodd" clip-rule="evenodd" d="M160.254 127.214V129.864H177.303V105.905C177.303 103.189 178.094 102.098 178.934 101.592C179.949 101.009 181.616 100.599 184.142 100.583C184.131 100.191 184.126 99.7953 184.126 99.3963C184.126 98.9035 184.134 98.4155 184.151 97.9323C181.334 97.9475 179.148 98.4055 177.594 99.3062C175.635 100.472 174.655 102.672 174.655 105.905V127.214H162.901V86.5848H174.655V94.3767C175.373 92.6329 176.255 91.1318 177.303 89.8732C177.879 89.1807 178.506 88.5616 179.182 88.016C180.526 86.9326 182.185 86.2837 184.159 86.0692C184.307 86.0531 184.457 86.0395 184.608 86.0283C185.28 85.9786 185.988 85.977 186.73 86.0234C186.76 85.9572 186.79 85.8913 186.82 85.8255C187.197 85.0036 187.607 84.2135 188.051 83.4552L186.982 83.3839C183.348 83.1413 180.086 83.8839 177.521 85.9521C177.448 86.0114 177.375 86.0713 177.303 86.1319V83.9346H160.254V86.5848H160.799V127.214H160.254Z" fill="white"/>
  <path fill-rule="evenodd" clip-rule="evenodd" d="M121.902 111.694C121.146 112.062 120.384 112.407 119.615 112.729C119.361 110.85 119.237 108.892 119.237 106.86C119.237 103.817 119.546 100.914 120.177 98.1576L120.183 98.1322L120.189 98.1069C120.883 95.3278 121.912 92.8284 123.306 90.6441L123.316 90.6286C124.799 88.3403 126.684 86.5044 128.968 85.1702L128.995 85.1544C131.418 83.7781 134.187 83.1395 137.212 83.1395C140.432 83.1395 143.342 83.9821 145.807 85.7717C145.981 85.891 146.151 86.0134 146.318 86.139V83.9346H163.446V86.5848H162.901V127.214H163.446V129.864H146.318V127.572C145.978 127.824 145.626 128.061 145.261 128.284C142.641 129.883 139.694 130.659 136.497 130.659C133.625 130.659 130.986 130.044 128.671 128.72L128.642 128.703C126.471 127.425 124.672 125.674 123.245 123.501L123.227 123.473C122.736 122.705 122.296 121.895 121.902 121.047V111.694ZM146.318 124.038C147.366 122.924 148.248 121.57 148.965 119.978V127.214H160.799V86.5848H148.965V93.6611C148.263 92.1202 147.38 90.7909 146.318 89.6734C145.7 89.0226 145.02 88.4437 144.28 87.9365C142.321 86.5053 139.965 85.7898 137.212 85.7898C134.564 85.7898 132.261 86.3463 130.302 87.4594C128.396 88.5726 126.808 90.1097 125.537 92.0709C124.319 93.9791 123.393 96.2054 122.757 98.7497C122.175 101.294 121.884 103.997 121.884 106.86C121.884 109.881 122.175 112.69 122.757 115.287C123.34 117.885 124.24 120.137 125.458 122.046C126.675 123.901 128.184 125.359 129.984 126.419C131.838 127.479 134.008 128.009 136.497 128.009C139.25 128.009 141.712 127.346 143.883 126.021C144.775 125.476 145.587 124.815 146.318 124.038ZM135.464 115.049C134.194 113.247 133.558 110.517 133.558 106.86C133.558 103.361 134.22 100.684 135.544 98.8292C136.92 96.921 138.932 95.9669 141.58 95.9669C143.644 95.9669 145.392 96.7089 146.821 98.1931C148.251 99.6773 148.965 102.036 148.965 105.269V108.529C148.965 111.71 148.171 114.042 146.583 115.526C144.995 117.01 143.168 117.752 141.103 117.752C138.668 117.752 136.788 116.851 135.464 115.049ZM137.694 100.376C136.823 101.6 136.206 103.642 136.206 106.86C136.206 110.275 136.811 112.348 137.613 113.5C138.386 114.541 139.433 115.102 141.103 115.102C142.46 115.102 143.65 114.641 144.777 113.588C145.621 112.799 146.318 111.317 146.318 108.529V105.269C146.318 102.346 145.66 100.806 144.916 100.033C143.986 99.0682 142.928 98.6171 141.58 98.6171C139.662 98.6171 138.504 99.2551 137.694 100.376Z" fill="white"/>
  <path fill-rule="evenodd" clip-rule="evenodd" d="M124.549 120.441V125.749L123.37 126.535C121.183 127.995 118.53 129.06 115.488 129.791L115.464 129.797L115.439 129.802C112.409 130.47 109.195 130.797 105.806 130.797C100.918 130.797 96.4493 130.081 92.4365 128.597C88.4606 127.128 85.0523 125.047 82.2695 122.324L82.2477 122.303C79.4775 119.53 77.3625 116.18 75.8855 112.298L75.8723 112.263C74.4514 108.367 73.7636 104.067 73.7636 99.3963C73.7636 94.8302 74.4543 90.5882 75.8726 86.699L75.8852 86.6643C77.3604 82.7875 79.4723 79.4411 82.2374 76.6697C85.0118 73.8324 88.3922 71.6833 92.3286 70.2039C96.3488 68.6576 100.826 67.9109 105.722 67.9109C109.029 67.9109 112.211 68.3015 115.258 69.0925C118.32 69.8305 121.04 70.9565 123.37 72.5117L124.549 73.2985V91.7906L120.647 89.6869C118.601 88.5841 116.513 87.723 114.381 87.0983L114.353 87.09L114.325 87.0811C112.311 86.4418 109.989 86.1025 107.331 86.1025C102.205 86.1025 98.7189 87.4667 96.4291 89.8032L96.4114 89.8212C94.043 92.1924 92.7817 95.3261 92.7817 99.4811C92.7817 103.616 94.0576 106.741 96.4688 109.114C98.8181 111.372 102.358 112.69 107.5 112.69C110.052 112.69 112.34 112.377 114.381 111.779C116.551 111.143 118.671 110.321 120.742 109.311L121.922 108.736C121.965 109.747 122.041 110.733 122.153 111.694C122.18 111.927 122.209 112.159 122.24 112.389C122.329 113.045 122.434 113.688 122.556 114.319C122.618 114.645 122.686 114.968 122.757 115.287C123.184 117.19 123.781 118.908 124.549 120.441ZM121.902 111.694C121.028 112.12 120.146 112.515 119.254 112.878C117.898 113.432 116.522 113.913 115.125 114.323C112.809 115.001 110.268 115.34 107.5 115.34C101.909 115.34 97.6173 113.899 94.6242 111.015C91.631 108.075 90.1344 104.23 90.1344 99.4811C90.1344 94.7318 91.6027 90.8872 94.5394 87.9471C97.4762 84.9505 101.74 83.4522 107.331 83.4522C110.211 83.4522 112.809 83.8197 115.125 84.5547C116.522 84.9641 117.898 85.4661 119.254 86.0608C120.146 86.4517 121.028 86.8825 121.902 87.3534V74.7169C119.869 73.3599 117.44 72.3422 114.616 71.6637C111.793 70.9287 108.828 70.5612 105.722 70.5612C101.091 70.5612 96.9396 71.268 93.2688 72.6815C89.6543 74.0384 86.6047 75.989 84.1198 78.5333C81.6349 81.021 79.7147 84.0459 78.3593 87.6079C77.0604 91.1699 76.4109 95.0993 76.4109 99.3963C76.4109 103.806 77.0604 107.792 78.3593 111.354C79.7147 114.916 81.6349 117.941 84.1198 120.429C86.6047 122.86 89.6826 124.754 93.3535 126.111C97.0244 127.468 101.175 128.147 105.806 128.147C109.025 128.147 112.047 127.836 114.871 127.214C117.694 126.535 120.038 125.574 121.902 124.33L121.902 111.694Z" fill="white"/>
  <path d="M266.901 161.667V145.745H263.661V144.494H271.666V145.745H268.511V161.667H266.901Z" fill="white"/>
  <path d="M258.196 161.88C257.039 161.88 256.142 161.639 255.507 161.159C254.886 160.678 254.455 160.035 254.215 159.229C253.975 158.409 253.855 157.505 253.855 156.515V149.688C253.855 148.628 253.975 147.695 254.215 146.889C254.469 146.084 254.914 145.455 255.549 145.002C256.185 144.55 257.067 144.324 258.196 144.324C259.227 144.324 260.032 144.522 260.611 144.918C261.204 145.313 261.627 145.879 261.881 146.614C262.136 147.335 262.263 148.197 262.263 149.201V150.239H260.738V149.243C260.738 148.494 260.674 147.851 260.547 147.314C260.434 146.776 260.194 146.359 259.827 146.063C259.46 145.766 258.924 145.617 258.218 145.617C257.441 145.617 256.855 145.78 256.46 146.105C256.079 146.416 255.817 146.861 255.676 147.441C255.549 148.02 255.486 148.692 255.486 149.455V156.77C255.486 157.618 255.563 158.325 255.719 158.89C255.888 159.455 256.17 159.879 256.566 160.162C256.961 160.445 257.512 160.586 258.218 160.586C258.938 160.586 259.474 160.431 259.827 160.12C260.194 159.809 260.434 159.378 260.547 158.826C260.674 158.261 260.738 157.604 260.738 156.855V155.731H262.263V156.749C262.263 157.752 262.143 158.643 261.903 159.42C261.677 160.183 261.267 160.784 260.674 161.222C260.095 161.66 259.269 161.88 258.196 161.88Z" fill="white"/>
  <path d="M245.756 161.667V144.494H251.961V145.745H247.386V152.19H251.114V153.377H247.386V160.459H252.003V161.667H245.756Z" fill="white"/>
  <path d="M234.774 161.667V144.494H235.939L241.403 157.83V144.494H242.801V161.667H241.657L236.172 148.183V161.667H234.774Z" fill="white"/>
  <path d="M223.771 161.667V144.494H224.936L230.4 157.83V144.494H231.798V161.667H230.654L225.169 148.183V161.667H223.771Z" fill="white"/>
  <path d="M216.711 161.88C215.567 161.88 214.671 161.66 214.021 161.222C213.386 160.77 212.934 160.148 212.666 159.356C212.412 158.551 212.284 157.632 212.284 156.6V149.476C212.284 148.43 212.419 147.526 212.687 146.762C212.969 145.985 213.428 145.384 214.063 144.96C214.713 144.536 215.595 144.324 216.711 144.324C217.812 144.324 218.68 144.536 219.316 144.96C219.965 145.384 220.424 145.985 220.692 146.762C220.96 147.526 221.095 148.43 221.095 149.476V156.621C221.095 157.653 220.96 158.565 220.692 159.356C220.438 160.134 219.993 160.749 219.358 161.201C218.723 161.653 217.84 161.88 216.711 161.88ZM216.711 160.586C217.459 160.586 218.031 160.438 218.426 160.141C218.821 159.83 219.09 159.406 219.231 158.869C219.386 158.318 219.464 157.681 219.464 156.961V149.179C219.464 148.458 219.386 147.829 219.231 147.292C219.09 146.755 218.821 146.345 218.426 146.063C218.031 145.766 217.459 145.617 216.711 145.617C215.948 145.617 215.362 145.766 214.953 146.063C214.558 146.345 214.282 146.755 214.127 147.292C213.986 147.829 213.915 148.458 213.915 149.179V156.961C213.915 157.681 213.986 158.318 214.127 158.869C214.282 159.406 214.558 159.83 214.953 160.141C215.362 160.438 215.948 160.586 216.711 160.586Z" fill="white"/>
  <path d="M206.058 161.88C204.9 161.88 204.003 161.639 203.368 161.159C202.747 160.678 202.316 160.035 202.076 159.229C201.836 158.409 201.716 157.505 201.716 156.515V149.688C201.716 148.628 201.836 147.695 202.076 146.889C202.33 146.084 202.775 145.455 203.41 145.002C204.046 144.55 204.928 144.324 206.058 144.324C207.088 144.324 207.893 144.522 208.472 144.918C209.065 145.313 209.488 145.879 209.743 146.614C209.997 147.335 210.124 148.197 210.124 149.201V150.239H208.599V149.243C208.599 148.494 208.535 147.851 208.408 147.314C208.295 146.776 208.055 146.359 207.688 146.063C207.321 145.766 206.785 145.617 206.079 145.617C205.302 145.617 204.716 145.78 204.321 146.105C203.94 146.416 203.679 146.861 203.537 147.441C203.41 148.02 203.347 148.692 203.347 149.455V156.77C203.347 157.618 203.424 158.325 203.58 158.89C203.749 159.455 204.031 159.879 204.427 160.162C204.822 160.445 205.373 160.586 206.079 160.586C206.799 160.586 207.335 160.431 207.688 160.12C208.055 159.809 208.295 159.378 208.408 158.826C208.535 158.261 208.599 157.604 208.599 156.855V155.731H210.124V156.749C210.124 157.752 210.004 158.643 209.764 159.42C209.538 160.183 209.128 160.784 208.535 161.222C207.957 161.66 207.131 161.88 206.058 161.88Z" fill="white"/>
  <path d="M182.594 161.667V144.494H186.469C187.542 144.494 188.382 144.67 188.99 145.024C189.611 145.363 190.055 145.865 190.324 146.529C190.592 147.179 190.726 147.957 190.726 148.861C190.726 149.497 190.656 150.098 190.514 150.663C190.373 151.229 190.133 151.709 189.794 152.105C189.455 152.501 188.975 152.762 188.354 152.89L190.98 161.667H189.413L186.893 153.229H184.203V161.667H182.594ZM184.203 152.042H186.385C187.105 152.042 187.662 151.921 188.058 151.681C188.453 151.441 188.735 151.088 188.905 150.621C189.074 150.155 189.159 149.568 189.159 148.861C189.159 147.801 188.975 147.01 188.608 146.487C188.241 145.964 187.514 145.702 186.427 145.702H184.203V152.042Z" fill="white"/>
  <path d="M177.941 161.667V144.494H179.551V161.667H177.941Z" fill="white"/>
  <path d="M166.874 161.667L170.496 144.494H172.19L175.833 161.667H174.244L173.397 157.067H169.31L168.442 161.667H166.874ZM169.543 155.9H173.186L171.364 146.635L169.543 155.9Z" fill="white"/>
  <path d="M158.437 161.667V144.494H162.546C163.577 144.494 164.388 144.684 164.981 145.066C165.574 145.448 165.991 145.978 166.231 146.656C166.485 147.335 166.612 148.133 166.612 149.052C166.612 149.858 166.478 150.607 166.21 151.3C165.956 151.978 165.525 152.522 164.918 152.932C164.325 153.342 163.541 153.547 162.567 153.547H160.047V161.667H158.437ZM160.047 152.338H162.101C162.793 152.338 163.351 152.24 163.774 152.042C164.212 151.83 164.53 151.483 164.727 151.003C164.925 150.522 165.024 149.872 165.024 149.052C165.024 148.176 164.939 147.497 164.77 147.017C164.6 146.522 164.304 146.183 163.88 145.999C163.471 145.801 162.885 145.702 162.122 145.702H160.047V152.338Z" fill="white"/>
  <path d="M149.978 161.667V144.494H156.183V145.745H151.609V152.19H155.336V153.377H151.609V160.459H156.226V161.667H149.978Z" fill="white"/>
  <path d="M139.162 161.667V144.494H143.038C144.111 144.494 144.951 144.67 145.558 145.024C146.179 145.363 146.624 145.865 146.892 146.529C147.16 147.179 147.294 147.957 147.294 148.861C147.294 149.497 147.224 150.098 147.083 150.663C146.941 151.229 146.701 151.709 146.362 152.105C146.024 152.501 145.544 152.762 144.922 152.89L147.548 161.667H145.981L143.461 153.229H140.771V161.667H139.162ZM140.771 152.042H142.953C143.673 152.042 144.231 151.921 144.626 151.681C145.021 151.441 145.304 151.088 145.473 150.621C145.642 150.155 145.727 149.568 145.727 148.861C145.727 147.801 145.544 147.01 145.177 146.487C144.809 145.964 144.082 145.702 142.995 145.702H140.771V152.042Z" fill="white"/>
</svg>