<svg xmlns="http://www.w3.org/2000/svg" width="92" height="57" viewBox="0 0 92 57" fill="none">
  <path d="M29.1211 0.176824C30.2019 0.277055 30.2019 0.277055 31.3046 0.37931C33.0641 0.63965 33.0641 0.63965 33.7977 1.38017C34.0673 3.10424 34.3129 4.83236 34.5312 6.56382C36.3469 7.29694 36.3469 7.29694 38.1992 8.04486C37.9819 10.6768 37.6098 11.6019 35.7233 13.5062C35.0878 13.9033 34.4524 14.3004 33.7977 14.7096C33.0714 14.4652 32.3452 14.2208 31.5969 13.969C26.5733 13.4196 22.5555 13.9252 18.3924 16.9311C14.9804 20.5567 13.5821 23.7808 13.2574 28.7795C13.5675 33.6149 15.2539 36.5961 18.4297 40.1621C22.276 43.4068 26.2893 42.9397 31.0138 42.5963C32.5397 42.5398 32.5397 42.5398 35.2648 42.8494C37.1074 44.6023 37.1074 44.6023 38.1992 46.552C38.0158 48.2644 38.0158 48.2644 37.4656 49.5141C35.65 49.8806 35.65 49.8806 33.7977 50.2546C33.7977 52.2096 33.7977 54.1645 33.7977 56.1787C31.7697 57.2023 30.0959 56.9898 27.8373 56.9655C27.0335 56.9589 26.2297 56.9522 25.4016 56.9453C24.4739 56.9324 24.4739 56.9324 23.5275 56.9193C23.4197 56.4553 23.3119 55.9914 23.2008 55.5134C22.181 51.5399 22.181 51.5399 19.2177 48.9124C16.2127 48.7304 15.4687 49.7971 13.2574 51.7356C10.0516 51.4511 8.31384 49.4209 6.18804 47.1739C5.18796 45.8114 5.18796 45.8114 5.09627 43.8213C5.92155 42.1088 5.92154 42.1088 7.15946 40.6741C7.63606 39.9181 7.63606 39.9181 8.12229 39.1468C7.59981 36.761 7.59981 36.761 6.65513 34.7036C5.70193 34.5967 4.74873 34.4898 3.76665 34.3797C0.878169 34.0557 0.878169 34.0557 0.0528892 33.2226C-0.000361069 31.6035 -0.00853932 29.9828 0.00704037 28.3629C0.0136598 27.4761 0.0202792 26.5893 0.0270993 25.6756C0.0356099 24.9893 0.0441206 24.3029 0.0528892 23.5958C2.22183 22.5011 4.26533 22.8106 6.65513 22.8553C7.63671 19.9333 7.63671 19.9333 8.12229 16.9311C6.74676 15.2956 6.74676 15.2956 5.18796 13.969C5.30348 11.6058 5.68562 10.5267 7.27695 8.77092C7.81313 8.33277 8.3493 7.89462 8.90172 7.44319C9.43979 6.99549 9.97785 6.54779 10.5322 6.08653C10.9474 5.75529 11.3625 5.42405 11.7902 5.08278C12.6072 5.6097 12.6072 5.6097 13.4408 6.14728C16.6654 7.9968 18.453 8.2147 22.0603 7.30434C22.3024 5.10499 22.5445 2.90564 22.7939 0.63965C25.1998 -0.169876 26.6193 -0.0697197 29.1211 0.176824Z" fill="#156DAF"/>
  <path fill-rule="evenodd" clip-rule="evenodd" d="M80.2899 27.3934C80.0445 28.1949 79.9252 29.0551 79.9252 29.9689C79.9252 31.9207 80.4763 33.5472 81.6549 34.7542L81.6586 34.7579C82.8662 35.977 84.6949 36.5077 86.975 36.5077C87.6922 36.5077 88.4087 36.4448 89.1241 36.3192C89.8518 36.1941 90.5006 36.0186 91.0616 35.7854L91.5158 35.5966V31.5758H92V29.9689C92 29.0409 91.8987 28.1703 91.6903 27.361C91.4784 26.5382 91.1386 25.8088 90.661 25.1873C90.1861 24.55 89.5661 24.0614 88.819 23.7186C88.0566 23.3688 87.1778 23.2079 86.2047 23.2079C85.217 23.2079 84.3163 23.3688 83.5187 23.7114C82.7804 24.0285 82.1423 24.4706 81.6143 25.0395V26.2558C81.7518 26.0359 81.9029 25.8296 82.0673 25.6368C82.5368 25.1037 83.1163 24.689 83.8059 24.3928C84.4955 24.0966 85.2951 23.9485 86.2047 23.9485C87.0997 23.9485 87.8699 24.0966 88.5155 24.3928C89.161 24.689 89.6819 25.1037 90.078 25.6368C90.4888 26.17 90.7896 26.8069 90.9803 27.5474C91.1711 28.2879 91.2664 29.0951 91.2664 29.9689V30.8353H83.8939C83.9436 31.1084 84.0192 31.3552 84.1209 31.5758C84.2893 31.9416 84.5291 32.2353 84.8402 32.457C85.3538 32.7977 86.0947 32.968 87.063 32.968C87.7232 32.968 88.3688 32.9162 88.9996 32.8125C89.3659 32.7537 89.7155 32.683 90.0487 32.6003C90.3028 32.5373 90.5473 32.4673 90.7823 32.3904V35.1007C90.2834 35.3081 89.6892 35.471 88.9996 35.5895C88.3248 35.7079 87.6499 35.7672 86.975 35.7672C84.7889 35.7672 83.1897 35.2562 82.1773 34.2343C81.165 33.1976 80.6588 31.7758 80.6588 29.9689C80.6588 29.0951 80.7762 28.2879 81.0109 27.5474C81.0317 27.4858 81.0531 27.425 81.0753 27.3649C80.8762 27.3609 80.6878 27.3644 80.5099 27.3754C80.5012 27.376 80.4924 27.3765 80.4837 27.3771C80.4177 27.3815 80.3531 27.3869 80.2899 27.3934ZM84.9744 31.5758C85.0574 31.682 85.1509 31.7706 85.2533 31.8449C85.5978 32.0691 86.171 32.2275 87.063 32.2275C87.685 32.2275 88.2911 32.1787 88.8818 32.0816L88.8844 32.0812C89.4976 31.9827 90.0541 31.8503 90.5559 31.686L90.8925 31.5758H84.9744ZM84.5101 27.1031C84.8769 26.644 85.4124 26.4144 86.1167 26.4144C86.7916 26.4144 87.2977 26.6365 87.6352 27.0809C87.8794 27.3788 88.0531 27.7836 88.1562 28.2953C88.2017 28.5213 88.2334 28.7681 88.2514 29.0358H83.8499C83.8734 28.77 83.912 28.5231 83.9657 28.2953C84.0794 27.8124 84.2609 27.415 84.5101 27.1031ZM84.7244 28.2953H87.4044C87.3192 27.9503 87.2001 27.7117 87.07 27.553L87.0613 27.5424L87.053 27.5314C86.8848 27.31 86.6186 27.1549 86.1167 27.1549C85.5838 27.1549 85.2798 27.3193 85.0812 27.5679C84.9392 27.7456 84.8159 27.9831 84.7244 28.2953Z" fill="#171717"/>
  <path fill-rule="evenodd" clip-rule="evenodd" d="M74.2564 35.545V36.2855H78.9807V29.5912C78.9807 28.8322 79.2 28.5274 79.4329 28.3859C79.7118 28.2243 80.1688 28.1104 80.8594 28.1041C80.9029 27.9146 80.9534 27.729 81.0109 27.5474C81.0286 27.495 81.0467 27.4432 81.0654 27.3919C81.0687 27.3829 81.072 27.3739 81.0753 27.3649C81.0092 27.3636 80.9444 27.3631 80.8807 27.3634C80.0989 27.3674 79.4924 27.4954 79.0614 27.7473C78.5185 28.0732 78.2471 28.6878 78.2471 29.5912V35.545H74.99V24.1928H78.2471V26.37C78.4459 25.8827 78.6904 25.4633 78.9807 25.1116C79.1405 24.9181 79.3141 24.7452 79.5015 24.5927C79.8738 24.29 80.3335 24.1087 80.8807 24.0487C80.9217 24.0443 80.9631 24.0404 81.0051 24.0373C81.1978 24.023 81.4009 24.023 81.6143 24.0373V26.2558C81.7518 26.0359 81.9029 25.8296 82.0673 25.6368C82.1568 25.5352 82.2503 25.4378 82.3478 25.3448V23.3445L81.6631 23.2984C80.6559 23.2307 79.752 23.4382 79.0413 24.016C79.021 24.0326 79.0008 24.0493 78.9807 24.0663V23.4523H74.2564V24.1928H74.4073V35.545H74.2564Z" fill="#171717"/>
  <path fill-rule="evenodd" clip-rule="evenodd" d="M63.6286 33.8219C63.7378 34.059 63.86 34.2851 63.9958 34.4997L64.001 34.5077C64.3962 35.1149 64.8948 35.6039 65.4965 35.9611L65.5045 35.9658C66.146 36.3359 66.8772 36.5077 67.673 36.5077C68.5591 36.5077 69.3756 36.291 70.1017 35.844C70.2027 35.7818 70.3004 35.7154 70.3946 35.645V36.2855H75.1409V35.545H74.99V24.1928H75.1409V23.4523H70.3946V24.0682C70.3483 24.0332 70.3011 23.999 70.2532 23.9657C69.5701 23.4656 68.7636 23.2301 67.8711 23.2301C67.033 23.2301 66.2656 23.4086 65.5944 23.7932L65.5868 23.7976C64.9538 24.1703 64.4314 24.6833 64.0206 25.3227L64.0178 25.327C63.6316 25.9374 63.3464 26.6357 63.1541 27.4122L63.1523 27.4193L63.1507 27.4264C62.9759 28.1965 62.8901 29.0077 62.8901 29.8578C62.8901 30.4257 62.9247 30.9727 62.9949 31.4979C63.208 31.408 63.4192 31.3115 63.6286 31.2085V33.8219ZM69.8298 24.5705C69.2869 24.1706 68.634 23.9707 67.8711 23.9707C67.1375 23.9707 66.4993 24.1262 65.9565 24.4372C65.4283 24.7482 64.9882 25.1777 64.636 25.7257C64.2986 26.2589 64.0418 26.8809 63.8658 27.5918C63.7044 28.3027 63.6237 29.0581 63.6237 29.8578C63.6237 30.702 63.7044 31.487 63.8658 32.2127C64.0272 32.9384 64.2766 33.5678 64.614 34.101C64.9515 34.6194 65.3696 35.0267 65.8684 35.3229C66.382 35.6191 66.9835 35.7672 67.673 35.7672C68.436 35.7672 69.1182 35.582 69.7197 35.2118C69.967 35.0596 70.192 34.8748 70.3946 34.6576C70.685 34.3463 70.9295 33.9682 71.1282 33.5234V35.545H74.4073V24.1928H71.1282V26.17C70.9335 25.7395 70.689 25.3681 70.3946 25.0558C70.2233 24.874 70.035 24.7122 69.8298 24.5705ZM67.387 32.146C67.0348 31.6425 66.8588 30.8797 66.8588 29.8578C66.8588 28.8803 67.0422 28.1324 67.409 27.614C67.7904 27.0809 68.348 26.8143 69.0815 26.8143C69.6537 26.8143 70.1379 27.0216 70.534 27.4363C70.9302 27.851 71.1282 28.5101 71.1282 29.4135V30.3243C71.1282 31.213 70.9081 31.8646 70.468 32.2793C70.0279 32.694 69.5217 32.9014 68.9495 32.9014C68.2746 32.9014 67.7538 32.6496 67.387 32.146ZM68.0047 28.0462C67.7634 28.3883 67.5924 28.9589 67.5924 29.8578C67.5924 30.8122 67.7601 31.3915 67.9822 31.7132C68.1965 32.0042 68.4866 32.1608 68.9495 32.1608C69.3255 32.1608 69.6553 32.032 69.9675 31.738C70.2015 31.5174 70.3946 31.1034 70.3946 30.3243V29.4135C70.3946 28.5966 70.2123 28.1664 70.006 27.9503C69.7485 27.6808 69.4551 27.5548 69.0815 27.5548C68.55 27.5548 68.2293 27.7331 68.0047 28.0462Z" fill="#171717"/>
  <path fill-rule="evenodd" clip-rule="evenodd" d="M64.3622 33.6527V35.1356L64.0355 35.3555C63.4294 35.7634 62.6943 36.0609 61.8514 36.2651L61.8447 36.2667L61.8379 36.2682C60.9981 36.4547 60.1076 36.5462 59.1684 36.5462C57.814 36.5462 56.5756 36.3461 55.4636 35.9316C54.3618 35.521 53.4174 34.9396 52.6462 34.1789L52.6402 34.1729C51.8725 33.398 51.2865 32.462 50.8771 31.3774L50.8735 31.3677C50.4798 30.279 50.2892 29.0775 50.2892 27.7725C50.2892 27.6511 50.2909 27.5304 50.2944 27.4107C50.5193 27.3806 50.7645 27.3649 51.0299 27.3634C51.0251 27.4984 51.0228 27.6348 51.0228 27.7725C51.0228 29.0047 51.2027 30.1185 51.5627 31.1137C51.9383 32.109 52.4704 32.9542 53.1589 33.6493C53.8475 34.3286 54.7004 34.8578 55.7177 35.237C56.7349 35.6161 57.8852 35.8057 59.1684 35.8057C60.0605 35.8057 60.8978 35.7188 61.6802 35.545C62.4627 35.3554 63.1122 35.0869 63.6286 34.7393L63.6286 31.2085C63.3866 31.3276 63.142 31.4379 62.8951 31.5396C62.5193 31.6942 62.1378 31.8287 61.7507 31.9431C61.109 32.1327 60.4048 32.2275 59.6379 32.2275C58.0886 32.2275 56.8992 31.8246 56.0698 31.019C55.2404 30.1975 54.8256 29.1232 54.8256 27.7962C54.8256 26.4692 55.2325 25.3949 56.0463 24.5735C56.8601 23.7362 58.0417 23.3175 59.591 23.3175C60.3891 23.3175 61.109 23.4202 61.7507 23.6256C62.1378 23.74 62.5193 23.8802 62.8951 24.0464C63.142 24.1556 63.3866 24.276 63.6286 24.4076V20.8768C63.0652 20.4976 62.3923 20.2133 61.6098 20.0237C60.8273 19.8183 60.0057 19.7156 59.145 19.7156C57.8617 19.7156 56.7114 19.9131 55.6942 20.3081C54.6926 20.6872 53.8475 21.2322 53.1589 21.9431C52.5749 22.5327 52.1034 23.2304 51.7445 24.0359C51.4564 24.0178 51.1872 24.026 50.9371 24.0605C51.3424 23.0427 51.9078 22.1597 52.6373 21.4224C53.4061 20.6296 54.3428 20.0292 55.4336 19.6158C56.5477 19.1837 57.7884 18.9751 59.145 18.9751C60.0616 18.9751 60.9432 19.0842 61.7877 19.3052C62.636 19.5115 63.3898 19.8261 64.0355 20.2606L64.3622 20.4805V25.6474L63.2808 25.0596C62.7139 24.7514 62.1353 24.5108 61.5446 24.3363L61.5367 24.334L61.5289 24.3315C60.9709 24.1529 60.3275 24.0581 59.591 24.0581C58.1706 24.0581 57.2045 24.4392 56.57 25.0921L56.5651 25.0971C55.9088 25.7596 55.5592 26.6352 55.5592 27.7962C55.5592 28.9514 55.9128 29.8246 56.5809 30.4877C57.2319 31.1186 58.2129 31.487 59.6379 31.487C60.3451 31.487 60.9789 31.3996 61.5446 31.2324C62.146 31.0547 62.7335 30.825 63.3073 30.5428L63.6344 30.382C63.646 30.6645 63.6673 30.9401 63.6982 31.2085C63.7057 31.2737 63.7138 31.3385 63.7224 31.4029C63.747 31.586 63.7761 31.7657 63.8098 31.9421C63.8273 32.0332 63.8459 32.1234 63.8658 32.2127C63.984 32.7443 64.1495 33.2243 64.3622 33.6527Z" fill="#171717"/>
  <path fill-rule="evenodd" clip-rule="evenodd" d="M44.4078 35.545V36.2855H49.1321V29.5912C49.1321 28.8322 49.3514 28.5274 49.5842 28.3859C49.8653 28.2231 50.3274 28.1086 51.0272 28.104C51.0242 27.9945 51.0228 27.884 51.0228 27.7725C51.0228 27.6348 51.0251 27.4984 51.0299 27.3634C50.2491 27.3677 49.6434 27.4957 49.2128 27.7473C48.6699 28.0732 48.3985 28.6878 48.3985 29.5912V35.545H45.1414V24.1928H48.3985V26.37C48.5972 25.8827 48.8417 25.4633 49.1321 25.1116C49.2918 24.9181 49.4654 24.7452 49.6529 24.5927C50.0252 24.29 50.4849 24.1087 51.032 24.0487C51.073 24.0443 51.1145 24.0404 51.1564 24.0373C51.3428 24.0234 51.5388 24.023 51.7445 24.0359C51.7527 24.0175 51.761 23.999 51.7694 23.9807C51.8738 23.751 51.9875 23.5302 52.1104 23.3184L51.8144 23.2984C50.8072 23.2307 49.9033 23.4382 49.1927 24.016C49.1723 24.0326 49.1521 24.0493 49.1321 24.0663V23.4523H44.4078V24.1928H44.5587V35.545H44.4078Z" fill="#171717"/>
  <path fill-rule="evenodd" clip-rule="evenodd" d="M33.78 31.2085C33.5706 31.3115 33.3593 31.408 33.1463 31.4979C33.076 30.9727 33.0415 30.4257 33.0415 29.8578C33.0415 29.0077 33.1272 28.1965 33.3021 27.4264L33.3037 27.4193L33.3054 27.4122C33.4977 26.6357 33.7829 25.9374 34.1692 25.327L34.1719 25.3227C34.5828 24.6833 35.1051 24.1703 35.7382 23.7976L35.7457 23.7931C36.4169 23.4086 37.1843 23.2301 38.0225 23.2301C38.915 23.2301 39.7214 23.4656 40.4045 23.9656C40.4525 23.999 40.4996 24.0332 40.546 24.0682V23.4523H45.2923V24.1928H45.1414V35.545H45.2923V36.2855H40.546V35.645C40.4517 35.7154 40.3541 35.7818 40.253 35.844C39.5269 36.291 38.7105 36.5077 37.8244 36.5077C37.0285 36.5077 36.2974 36.3359 35.6558 35.9658L35.6478 35.9612C35.0462 35.6039 34.5476 35.1149 34.1523 34.5077L34.1471 34.4997C34.0113 34.2851 33.8891 34.059 33.78 33.8219V31.2085ZM40.546 34.6576C40.8363 34.3463 41.0808 33.9682 41.2796 33.5234V35.545H44.5587V24.1928H41.2796V26.17C41.0849 25.7395 40.8403 25.3681 40.546 25.0558C40.3746 24.874 40.1863 24.7122 39.9811 24.5705C39.4383 24.1706 38.7854 23.9707 38.0225 23.9707C37.2889 23.9707 36.6507 24.1262 36.1078 24.4372C35.5796 24.7482 35.1395 25.1777 34.7874 25.7257C34.4499 26.2589 34.1932 26.8809 34.0171 27.5918C33.8557 28.3027 33.775 29.0581 33.775 29.8578C33.775 30.702 33.8557 31.487 34.0171 32.2127C34.1785 32.9384 34.4279 33.5678 34.7654 34.101C35.1028 34.6194 35.521 35.0267 36.0198 35.3229C36.5333 35.6191 37.1348 35.7672 37.8244 35.7672C38.5873 35.7672 39.2696 35.582 39.8711 35.2118C40.1184 35.0596 40.3433 34.8748 40.546 34.6576ZM37.5383 32.146C37.1862 31.6425 37.0101 30.8797 37.0101 29.8578C37.0101 28.8803 37.1935 28.1324 37.5603 27.614C37.9418 27.0809 38.4993 26.8143 39.2329 26.8143C39.8051 26.8143 40.2892 27.0216 40.6854 27.4363C41.0815 27.851 41.2796 28.5101 41.2796 29.4135V30.3243C41.2796 31.213 41.0595 31.8646 40.6194 32.2793C40.1792 32.694 39.673 32.9014 39.1008 32.9014C38.4259 32.9014 37.9051 32.6496 37.5383 32.146ZM38.1561 28.0461C37.9148 28.3882 37.7437 28.9588 37.7437 29.8578C37.7437 30.8122 37.9115 31.3915 38.1336 31.7132C38.3479 32.0042 38.638 32.1608 39.1008 32.1608C39.4768 32.1608 39.8067 32.032 40.1188 31.738C40.3529 31.5174 40.546 31.1034 40.546 30.3243V29.4135C40.546 28.5966 40.3637 28.1664 40.1573 27.9503C39.8998 27.6808 39.6065 27.5548 39.2329 27.5548C38.7015 27.5548 38.3807 27.733 38.1561 28.0461Z" fill="#171717"/>
  <path fill-rule="evenodd" clip-rule="evenodd" d="M34.5136 33.6527V35.1356L34.1869 35.3555C33.5808 35.7634 32.8457 36.0609 32.0028 36.2651L31.996 36.2667L31.9892 36.2682C31.1495 36.4547 30.259 36.5462 29.3198 36.5462C27.9654 36.5462 26.7269 36.3461 25.6149 35.9316C24.5132 35.521 23.5687 34.9396 22.7976 34.1789L22.7915 34.1729C22.0239 33.398 21.4378 32.462 21.0285 31.3774L21.0249 31.3677C20.6311 30.279 20.4405 29.0775 20.4405 27.7725C20.4405 26.4967 20.6319 25.3114 21.0249 24.2247L21.0284 24.215C21.4372 23.1318 22.0224 22.1968 22.7887 21.4224C23.5575 20.6296 24.4942 20.0292 25.585 19.6158C26.6991 19.1837 27.9398 18.9751 29.2963 18.9751C30.2129 18.9751 31.0946 19.0842 31.9391 19.3052C32.7874 19.5115 33.5412 19.8261 34.1869 20.2606L34.5136 20.4805V25.6474L33.4322 25.0596C32.8653 24.7514 32.2867 24.5108 31.6959 24.3363L31.6881 24.334L31.6803 24.3315C31.1222 24.1529 30.4788 24.0581 29.7423 24.0581C28.322 24.0581 27.3558 24.4392 26.7213 25.0921L26.7164 25.0971C26.0601 25.7596 25.7106 26.6352 25.7106 27.7962C25.7106 28.9514 26.0641 29.8247 26.7323 30.4878C27.3833 31.1187 28.3643 31.487 29.7893 31.487C30.4964 31.487 31.1302 31.3996 31.6959 31.2324C32.2974 31.0547 32.8849 30.825 33.4587 30.5428L33.7857 30.382C33.7974 30.6645 33.8187 30.9401 33.8496 31.2085C33.8571 31.2737 33.8652 31.3385 33.8738 31.4029C33.8983 31.586 33.9275 31.7657 33.9612 31.9421C33.9786 32.0332 33.9973 32.1234 34.0171 32.2127C34.1353 32.7443 34.3008 33.2243 34.5136 33.6527ZM33.78 31.2085C33.5379 31.3276 33.2934 31.4379 33.0464 31.5396C32.6706 31.6942 32.2892 31.8287 31.902 31.9431C31.2604 32.1327 30.5561 32.2275 29.7893 32.2275C28.24 32.2275 27.0506 31.8246 26.2212 31.019C25.3917 30.1975 24.977 29.1232 24.977 27.7962C24.977 26.4692 25.3839 25.3949 26.1977 24.5735C27.0115 23.7362 28.193 23.3175 29.7423 23.3175C30.5405 23.3175 31.2604 23.4202 31.902 23.6256C32.2892 23.74 32.6706 23.8802 33.0464 24.0464C33.2934 24.1556 33.5379 24.276 33.78 24.4076V20.8768C33.2166 20.4976 32.5437 20.2133 31.7612 20.0237C30.9787 19.8183 30.1571 19.7156 29.2963 19.7156C28.0131 19.7156 26.8628 19.9131 25.8456 20.3081C24.844 20.6872 23.9989 21.2322 23.3103 21.9431C22.6217 22.6382 22.0896 23.4834 21.714 24.4787C21.3541 25.4739 21.1741 26.5719 21.1741 27.7725C21.1741 29.0047 21.3541 30.1185 21.714 31.1137C22.0896 32.109 22.6217 32.9542 23.3103 33.6493C23.9989 34.3286 24.8518 34.8578 25.869 35.237C26.8863 35.6161 28.0365 35.8057 29.3198 35.8057C30.2118 35.8057 31.0491 35.7188 31.8316 35.545C32.6141 35.3554 33.2635 35.0869 33.78 34.7393V31.2085Z" fill="#171717"/>
  <path d="M73.9606 45.1718V40.7227H73.0627V40.3732H75.281V40.7227H74.4066V45.1718H73.9606Z" fill="#171717"/>
  <path d="M71.5484 45.231C71.2276 45.231 70.9791 45.1639 70.8031 45.0296C70.6309 44.8953 70.5116 44.7156 70.4451 44.4905C70.3786 44.2615 70.3453 44.0087 70.3453 43.7322V41.8246C70.3453 41.5284 70.3786 41.2678 70.4451 41.0426C70.5155 40.8175 70.6388 40.6418 70.8148 40.5154C70.9909 40.389 71.2354 40.3258 71.5484 40.3258C71.834 40.3258 72.057 40.3811 72.2174 40.4917C72.3818 40.6023 72.4991 40.7603 72.5696 40.9656C72.64 41.1671 72.6752 41.408 72.6752 41.6884V41.9787H72.2527V41.7002C72.2527 41.4909 72.235 41.3112 72.1998 41.1611C72.1685 41.0111 72.102 40.8945 72.0003 40.8116C71.8986 40.7287 71.7499 40.6872 71.5543 40.6872C71.3391 40.6872 71.1767 40.7326 71.0672 40.8235C70.9615 40.9103 70.8892 41.0348 70.85 41.1967C70.8148 41.3586 70.7972 41.5462 70.7972 41.7595V43.8033C70.7972 44.0403 70.8187 44.2378 70.8618 44.3957C70.9087 44.5537 70.987 44.6722 71.0965 44.7512C71.2061 44.8302 71.3587 44.8697 71.5543 44.8697C71.7538 44.8697 71.9025 44.8262 72.0003 44.7393C72.102 44.6524 72.1685 44.532 72.1998 44.378C72.235 44.22 72.2527 44.0363 72.2527 43.827V43.513H72.6752V43.7974C72.6752 44.0778 72.6419 44.3266 72.5754 44.5438C72.5128 44.7571 72.3994 44.925 72.235 45.0474C72.0746 45.1698 71.8458 45.231 71.5484 45.231Z" fill="#171717"/>
  <path d="M68.1009 45.1718V40.3732H69.8204V40.7227H68.5528V42.5237H69.5857V42.8554H68.5528V44.8341H69.8322V45.1718H68.1009Z" fill="#171717"/>
  <path d="M65.0578 45.1718V40.3732H65.3806L66.8947 44.0995V40.3732H67.2821V45.1718H66.9652L65.4452 41.404V45.1718H65.0578Z" fill="#171717"/>
  <path d="M62.0089 45.1718V40.3732H62.3317L63.8458 44.0995V40.3732H64.2331V45.1718H63.9162L62.3962 41.404V45.1718H62.0089Z" fill="#171717"/>
  <path d="M60.0524 45.231C59.7355 45.231 59.487 45.1698 59.307 45.0474C59.131 44.921 59.0058 44.7472 58.9314 44.5261C58.861 44.3009 58.8258 44.0442 58.8258 43.7559V41.7654C58.8258 41.4731 58.863 41.2204 58.9373 41.0071C59.0156 40.7899 59.1427 40.622 59.3188 40.5036C59.4987 40.3851 59.7433 40.3258 60.0524 40.3258C60.3575 40.3258 60.5981 40.3851 60.7742 40.5036C60.9542 40.622 61.0813 40.7899 61.1557 41.0071C61.23 41.2204 61.2672 41.4731 61.2672 41.7654V43.7618C61.2672 44.0502 61.23 44.3049 61.1557 44.5261C61.0852 44.7433 60.962 44.9151 60.7859 45.0415C60.6099 45.1678 60.3654 45.231 60.0524 45.231ZM60.0524 44.8697C60.2597 44.8697 60.4182 44.8282 60.5277 44.7453C60.6373 44.6584 60.7116 44.5399 60.7507 44.3898C60.7938 44.2358 60.8153 44.0581 60.8153 43.8566V41.6825C60.8153 41.481 60.7938 41.3053 60.7507 41.1552C60.7116 41.0051 60.6373 40.8906 60.5277 40.8116C60.4182 40.7287 60.2597 40.6872 60.0524 40.6872C59.8411 40.6872 59.6787 40.7287 59.5653 40.8116C59.4557 40.8906 59.3794 41.0051 59.3364 41.1552C59.2973 41.3053 59.2777 41.481 59.2777 41.6825V43.8566C59.2777 44.0581 59.2973 44.2358 59.3364 44.3898C59.3794 44.5399 59.4557 44.6584 59.5653 44.7453C59.6787 44.8282 59.8411 44.8697 60.0524 44.8697Z" fill="#171717"/>
  <path d="M57.1003 45.231C56.7795 45.231 56.531 45.1639 56.355 45.0296C56.1828 44.8953 56.0635 44.7156 55.997 44.4905C55.9305 44.2615 55.8972 44.0087 55.8972 43.7322V41.8246C55.8972 41.5284 55.9305 41.2678 55.997 41.0426C56.0674 40.8175 56.1906 40.6418 56.3667 40.5154C56.5428 40.389 56.7873 40.3258 57.1003 40.3258C57.3859 40.3258 57.6089 40.3811 57.7693 40.4917C57.9336 40.6023 58.051 40.7603 58.1214 40.9656C58.1919 41.1671 58.2271 41.408 58.2271 41.6884V41.9787H57.8045V41.7002C57.8045 41.4909 57.7869 41.3112 57.7517 41.1611C57.7204 41.0111 57.6539 40.8945 57.5522 40.8116C57.4504 40.7287 57.3018 40.6872 57.1062 40.6872C56.891 40.6872 56.7286 40.7326 56.6191 40.8235C56.5134 40.9103 56.441 41.0348 56.4019 41.1967C56.3667 41.3586 56.3491 41.5462 56.3491 41.7595V43.8033C56.3491 44.0403 56.3706 44.2378 56.4137 44.3957C56.4606 44.5537 56.5388 44.6722 56.6484 44.7512C56.7579 44.8302 56.9105 44.8697 57.1062 44.8697C57.3057 44.8697 57.4544 44.8262 57.5522 44.7393C57.6539 44.6524 57.7204 44.532 57.7517 44.378C57.7869 44.22 57.8045 44.0363 57.8045 43.827V43.513H58.2271V43.7974C58.2271 44.0778 58.1938 44.3266 58.1273 44.5438C58.0647 44.7571 57.9512 44.925 57.7869 45.0474C57.6265 45.1698 57.3976 45.231 57.1003 45.231Z" fill="#171717"/>
  <path d="M50.5983 45.1718V40.3732H51.6722C51.9696 40.3732 52.2024 40.4226 52.3706 40.5213C52.5427 40.6161 52.666 40.7563 52.7403 40.9419C52.8147 41.1236 52.8518 41.3408 52.8518 41.5936C52.8518 41.7713 52.8323 41.9392 52.7931 42.0971C52.754 42.2551 52.6875 42.3894 52.5936 42.5C52.4997 42.6106 52.3667 42.6836 52.1945 42.7192L52.9222 45.1718H52.488L51.7896 42.814H51.0443V45.1718H50.5983ZM51.0443 42.4822H51.6488C51.8483 42.4822 52.0028 42.4487 52.1124 42.3815C52.2219 42.3144 52.3002 42.2156 52.3471 42.0853C52.3941 41.955 52.4175 41.7911 52.4175 41.5936C52.4175 41.2974 52.3667 41.0762 52.265 40.9301C52.1632 40.784 51.9617 40.7109 51.6605 40.7109H51.0443V42.4822Z" fill="#171717"/>
  <path d="M49.309 45.1718V40.3732H49.7551V45.1718H49.309Z" fill="#171717"/>
  <path d="M46.2423 45.1718L47.2458 40.3732H47.7153L48.7247 45.1718H48.2846L48.0499 43.8862H46.9172L46.6766 45.1718H46.2423ZM46.9818 43.5604H47.9912L47.4865 40.9716L46.9818 43.5604Z" fill="#171717"/>
  <path d="M43.9043 45.1718V40.3732H45.0428C45.3285 40.3732 45.5534 40.4265 45.7177 40.5332C45.8821 40.6398 45.9975 40.7879 46.064 40.9775C46.1344 41.1671 46.1696 41.3902 46.1696 41.6469C46.1696 41.872 46.1325 42.0814 46.0581 42.2749C45.9877 42.4644 45.8684 42.6165 45.7001 42.731C45.5358 42.8456 45.3187 42.9028 45.0487 42.9028H44.3503V45.1718H43.9043ZM44.3503 42.5652H44.9196C45.1113 42.5652 45.2659 42.5375 45.3832 42.4822C45.5045 42.423 45.5925 42.3262 45.6473 42.1919C45.7021 42.0577 45.7295 41.876 45.7295 41.6469C45.7295 41.402 45.706 41.2125 45.6591 41.0782C45.6121 40.94 45.5299 40.8452 45.4126 40.7938C45.2991 40.7385 45.1367 40.7109 44.9255 40.7109H44.3503V42.5652Z" fill="#171717"/>
  <path d="M41.5602 45.1718V40.3732H43.2797V40.7227H42.0121V42.5237H43.0449V42.8554H42.0121V44.8341H43.2914V45.1718H41.5602Z" fill="#171717"/>
  <path d="M38.5629 45.1718V40.3732H39.6369C39.9342 40.3732 40.167 40.4226 40.3353 40.5213C40.5074 40.6161 40.6307 40.7563 40.705 40.9419C40.7793 41.1236 40.8165 41.3408 40.8165 41.5936C40.8165 41.7713 40.7969 41.9392 40.7578 42.0971C40.7187 42.2551 40.6522 42.3894 40.5583 42.5C40.4644 42.6106 40.3314 42.6836 40.1592 42.7192L40.8869 45.1718H40.4526L39.7543 42.814H39.009V45.1718H38.5629ZM39.009 42.4822H39.6134C39.813 42.4822 39.9675 42.4487 40.077 42.3815C40.1866 42.3144 40.2648 42.2156 40.3118 42.0853C40.3587 41.955 40.3822 41.7911 40.3822 41.5936C40.3822 41.2974 40.3314 41.0762 40.2296 40.9301C40.1279 40.784 39.9264 40.7109 39.6252 40.7109H39.009V42.4822Z" fill="#171717"/>
</svg>